<?xml version="1.0" standalone="no"?>
<!DOCTYPE svg PUBLIC "-//W3C//DTD SVG 20010904//EN"
 "http://www.w3.org/TR/2001/REC-SVG-20010904/DTD/svg10.dtd">
<svg version="1.0" xmlns="http://www.w3.org/2000/svg"
 width="2000.000000pt" height="1504.000000pt" viewBox="0 0 2000.000000 1504.000000"
 preserveAspectRatio="xMidYMid meet">

<g transform="translate(0.000000,1504.000000) scale(0.100000,-0.100000)"
fill="#000000" stroke="none">
<path d="M10440 14883 c-603 -43 -1124 -175 -1645 -415 -488 -225 -963 -572
-1315 -962 -484 -534 -819 -1166 -994 -1876 -200 -813 -191 -1766 24 -2595
261 -1008 852 -1848 1683 -2389 627 -409 1348 -637 2202 -697 220 -15 823 -6
1035 15 877 91 1607 335 2249 753 142 92 301 210 301 222 0 10 -615 1130 -627
1142 -5 5 -40 -17 -78 -47 -516 -413 -1125 -653 -1873 -741 -182 -21 -666 -24
-852 -5 -823 84 -1450 353 -1926 827 -220 220 -361 415 -504 700 -163 324
-254 632 -312 1055 -20 146 -22 208 -23 540 0 393 5 462 51 729 260 1512 1415
2431 3058 2431 858 0 1562 -232 2082 -687 l61 -53 352 555 c193 304 351 558
351 564 0 14 -177 152 -310 241 -164 109 -289 181 -463 265 -516 249 -1024
376 -1702 425 -126 9 -713 11 -825 3z"/>
<path d="M15697 3939 c-92 -15 -191 -96 -215 -178 -54 -180 60 -345 248 -359
80 -5 134 8 196 51 71 47 106 110 112 200 4 60 0 82 -18 125 -51 118 -183 184
-323 161z"/>
<path d="M1485 3914 c-169 -18 -390 -81 -525 -149 -254 -128 -478 -352 -607
-608 -47 -94 -108 -281 -130 -397 -27 -147 -25 -477 5 -628 101 -507 404 -868
865 -1031 328 -115 790 -114 1145 4 159 53 413 190 429 231 3 9 -167 340 -193
373 -1 1 -20 -11 -41 -28 -123 -98 -324 -184 -507 -216 -113 -19 -343 -20
-461 0 -395 64 -669 309 -764 681 -62 242 -47 540 38 759 43 113 95 196 175
282 179 192 406 289 707 300 284 11 508 -48 684 -182 33 -25 63 -44 67 -43 4
2 57 82 118 178 l110 175 -22 18 c-156 126 -386 225 -613 263 -88 15 -400 26
-480 18z"/>
<path d="M9650 3330 l0 -290 -215 0 -215 0 0 -180 0 -180 215 0 215 0 0 -492
c0 -271 5 -542 10 -603 35 -371 250 -566 625 -567 134 0 223 16 348 64 69 27
78 33 73 52 -3 11 -19 89 -37 171 -18 83 -33 152 -35 154 -1 1 -31 -7 -66 -19
-87 -31 -208 -37 -282 -16 -44 13 -70 29 -106 65 -85 85 -84 77 -88 674 l-3
517 276 0 275 0 0 180 0 180 -275 0 -275 0 0 290 0 290 -220 0 -220 0 0 -290z"/>
<path d="M14100 3113 c-320 -50 -553 -237 -601 -481 -14 -76 -7 -227 15 -298
24 -76 87 -167 153 -218 113 -90 245 -141 559 -221 286 -72 358 -107 396 -193
26 -58 20 -145 -12 -198 -88 -142 -392 -186 -675 -97 -94 30 -217 89 -297 144
l-57 38 -80 -155 c-45 -86 -78 -160 -75 -166 11 -18 142 -98 209 -128 101 -45
244 -87 363 -106 147 -23 412 -15 527 16 181 48 346 157 425 281 78 120 107
284 76 429 -53 251 -210 362 -683 484 -296 77 -376 110 -426 177 -46 62 -39
178 14 242 42 51 136 95 236 109 200 29 487 -49 646 -174 21 -17 40 -29 42
-26 6 5 135 268 146 295 7 19 0 26 -54 62 -198 128 -431 192 -692 190 -71 -1
-141 -3 -155 -6z"/>
<path d="M3941 3080 c-157 -42 -273 -118 -361 -239 l-45 -62 -3 131 -3 130
-219 0 -220 0 2 -982 3 -983 218 -3 217 -2 0 577 c0 637 2 652 62 765 39 73
134 164 212 201 119 58 301 72 444 33 51 -14 52 -14 57 7 9 43 53 422 50 426
-27 27 -312 27 -414 1z"/>
<path d="M7830 3084 c-175 -32 -354 -128 -472 -252 l-58 -61 0 135 0 134 -200
0 -200 0 0 -1400 0 -1400 220 0 220 0 0 541 0 542 53 -53 c112 -112 277 -200
442 -235 107 -23 313 -23 420 0 434 92 726 436 776 915 34 322 -69 641 -275
858 -122 128 -269 215 -441 262 -108 30 -360 37 -485 14z m308 -385 c76 -19
183 -72 244 -122 75 -62 151 -177 184 -280 35 -109 43 -274 20 -397 -59 -316
-323 -516 -656 -497 -355 19 -590 281 -590 657 0 279 129 498 351 599 56 25
108 40 199 55 40 7 196 -3 248 -15z"/>
<path d="M11849 3085 c-214 -40 -414 -150 -566 -308 -206 -216 -307 -485 -290
-777 35 -605 553 -1038 1171 -980 268 26 462 116 651 305 159 159 246 318 290
529 18 92 21 297 5 389 -58 315 -252 583 -533 732 -93 50 -138 67 -247 96
-101 27 -371 35 -481 14z m386 -390 c171 -45 306 -153 382 -308 85 -170 96
-411 27 -597 -107 -286 -408 -440 -732 -374 -119 24 -214 75 -302 164 -127
126 -180 269 -180 480 0 208 53 353 175 476 98 98 204 153 340 174 78 12 214
5 290 -15z"/>
<path d="M17495 3085 c-159 -35 -285 -106 -396 -223 l-79 -83 0 130 0 131
-220 0 -220 0 2 -982 3 -983 218 -3 217 -2 0 608 c0 659 0 664 56 774 56 111
192 212 322 239 86 18 245 7 307 -20 115 -51 187 -130 227 -250 22 -65 23 -76
26 -708 l3 -643 214 0 214 0 3 628 3 627 26 66 c50 128 150 230 277 281 49 19
75 22 193 23 l135 0 76 -38 c84 -41 133 -89 175 -171 50 -99 53 -133 53 -799
l0 -617 218 2 217 3 0 700 c-1 611 -3 709 -17 771 -84 367 -326 554 -718 554
-296 0 -530 -103 -691 -306 l-52 -66 -31 59 c-17 32 -62 90 -102 130 -125 125
-286 184 -496 182 -57 0 -130 -7 -163 -14z"/>
<path d="M4575 2953 c19 -49 194 -499 388 -1000 l354 -913 -48 -137 c-72 -204
-133 -279 -251 -310 -98 -25 -237 -9 -330 38 -22 11 -44 17 -48 12 -4 -4 -26
-80 -49 -168 -23 -88 -44 -167 -47 -176 -8 -30 163 -93 300 -110 235 -29 448
31 596 168 82 76 143 164 209 305 27 57 229 580 449 1163 220 583 414 1095
430 1138 l30 77 -231 0 -232 0 -224 -648 c-313 -901 -303 -876 -312 -860 -4 8
-123 338 -265 734 -141 395 -261 731 -266 747 l-10 27 -238 0 -239 0 34 -87z"/>
<path d="M15540 2055 l0 -985 215 0 215 0 0 985 0 985 -215 0 -215 0 0 -985z"/>
</g>
</svg>
