<svg version="1.1" id="Layer_1" xmlns="http://www.w3.org/2000/svg" xmlns:xlink="http://www.w3.org/1999/xlink" x="0px" y="0px"
	 width="100%" viewBox="0 0 2000 1504" enable-background="new 0 0 2000 1504" xml:space="preserve">
<path fill="#4C6971" opacity="1.000000" stroke="none" 
	d="
M1219.000000,1505.000000 
	C812.666687,1505.000000 406.833344,1505.000000 1.000000,1505.000000 
	C1.000000,1003.666687 1.000000,502.333344 1.000000,1.000000 
	C667.666687,1.000000 1334.333374,1.000000 2001.000000,1.000000 
	C2001.000000,502.333344 2001.000000,1003.666687 2001.000000,1505.000000 
	C1740.500000,1505.000000 1480.000000,1505.000000 1219.000000,1505.000000 
M1240.979248,179.485458 
	C1264.105347,191.016983 1285.406616,205.255981 1304.565308,222.855789 
	C1305.485718,221.811646 1306.251099,221.146454 1306.769653,220.325424 
	C1318.923340,201.082840 1331.037964,181.815567 1343.186157,162.569473 
	C1353.486694,146.250259 1363.645142,129.836304 1374.270874,113.731079 
	C1376.709839,110.034317 1375.307373,108.291588 1372.812134,106.374893 
	C1365.107178,100.456429 1357.456055,94.450928 1349.520508,88.852791 
	C1330.031250,75.104080 1309.520508,63.061073 1287.480713,53.871204 
	C1272.436401,47.598301 1257.380493,41.148682 1241.860474,36.271557 
	C1220.810181,29.656597 1199.318848,24.339506 1177.291016,21.951019 
	C1153.983398,19.423754 1130.671997,16.146902 1107.287720,15.330770 
	C1083.770996,14.510011 1060.102661,15.499352 1036.613037,17.224384 
	C1017.424683,18.633549 998.301147,21.726536 979.327332,25.082232 
	C945.692871,31.030775 913.488220,41.926476 882.574219,56.290817 
	C849.375305,71.716858 818.319336,90.655296 790.046326,114.181305 
	C770.469238,130.471420 752.350403,148.133972 736.096924,167.632385 
	C718.960510,188.190048 703.863220,210.201263 690.978333,233.756271 
	C674.014954,264.767242 660.750671,297.213043 651.398865,331.272034 
	C642.190430,364.808929 636.895508,399.063721 635.272583,433.707428 
	C634.216125,456.258728 634.991760,478.961731 636.180847,501.531708 
	C637.150879,519.944580 639.740845,538.286865 641.991821,556.613831 
	C644.832520,579.742126 650.798950,602.194275 657.712280,624.390442 
	C667.673035,656.370544 680.852539,687.004761 698.894043,715.236511 
	C710.228271,732.972778 722.409302,750.290649 735.597351,766.680176 
	C745.824768,779.390320 757.652466,790.976440 769.770874,801.956299 
	C782.455566,813.449280 795.983276,824.102051 809.780640,834.254883 
	C828.839905,848.279663 849.567932,859.682190 871.104858,869.434753 
	C884.912292,875.687134 898.900391,881.757629 913.273010,886.498413 
	C940.836304,895.590332 968.919739,902.949829 997.886597,906.064636 
	C1018.903687,908.324585 1039.945068,910.735413 1061.039917,911.774414 
	C1077.270508,912.573914 1093.619873,911.722717 1109.881958,910.911194 
	C1127.382812,910.037842 1144.908813,908.911194 1162.302490,906.863647 
	C1178.629761,904.941772 1194.898560,902.166382 1211.017334,898.899536 
	C1250.514038,890.894958 1288.245972,877.476318 1324.351685,859.689575 
	C1338.402588,852.767578 1352.088135,844.978577 1365.391235,836.702209 
	C1376.574219,829.744690 1387.014404,821.579651 1397.622925,813.732117 
	C1398.773682,812.880920 1399.806396,810.131470 1399.280273,809.041321 
	C1396.416138,803.106567 1393.034546,797.422241 1389.851440,791.640381 
	C1377.185547,768.633423 1364.555420,745.606689 1351.852051,722.620361 
	C1346.765381,713.416321 1341.523193,704.298218 1336.188599,694.851868 
	C1328.656372,700.483643 1321.736938,706.367065 1314.142700,711.187561 
	C1298.411865,721.172546 1282.731323,731.368774 1266.270508,740.035278 
	C1248.338257,749.476624 1229.163696,756.193970 1209.591431,761.747864 
	C1179.613281,770.254517 1149.042603,775.241638 1118.015991,776.791077 
	C1101.455200,777.618164 1084.756958,776.866821 1068.180054,775.856873 
	C1053.218994,774.945374 1038.258179,773.234070 1023.438538,770.956482 
	C988.435791,765.577087 955.289124,754.485779 924.067505,737.602722 
	C892.961975,720.782471 866.045410,698.925781 843.976685,671.328064 
	C826.133362,649.014404 812.330688,624.301270 801.981934,597.635010 
	C786.427673,557.555420 780.191956,515.702271 779.243042,473.072632 
	C778.809204,453.581146 780.416077,433.980133 782.172302,414.525787 
	C783.412354,400.788391 786.008423,387.121216 788.794373,373.586365 
	C794.652893,345.124481 805.238403,318.337433 819.108521,292.857330 
	C823.041443,285.632446 827.263306,278.519073 831.913513,271.739166 
	C845.268188,252.268402 861.117554,235.032318 878.908997,219.473984 
	C893.662598,206.572159 909.796692,195.770294 927.000671,186.592438 
	C946.989868,175.928726 967.943604,167.666656 989.824707,161.487259 
	C1014.257996,154.587097 1039.161743,151.003326 1064.337280,149.152679 
	C1075.846191,148.306656 1087.470703,149.147736 1099.038696,148.964676 
	C1118.806885,148.651871 1138.325195,150.814331 1157.821167,153.889816 
	C1186.537964,158.419830 1213.908325,167.149765 1240.979248,179.485458 
M1934.615112,1198.839478 
	C1893.411255,1187.731812 1857.651978,1195.110229 1829.635132,1229.917603 
	C1817.183350,1205.370117 1796.264526,1194.647827 1769.675781,1194.074585 
	C1743.451294,1193.509033 1721.475342,1203.110596 1704.670044,1224.031616 
	C1704.349487,1223.742676 1704.028809,1223.453857 1703.708130,1223.164917 
	C1703.708130,1215.581665 1703.708130,1207.998535 1703.708130,1200.421875 
	C1688.576416,1200.421875 1674.019409,1200.421875 1659.402100,1200.421875 
	C1659.402100,1266.393799 1659.402100,1331.942871 1659.402100,1397.608154 
	C1674.363647,1397.608154 1688.920166,1397.608154 1703.999878,1397.608154 
	C1703.999878,1395.423462 1703.999756,1393.626831 1703.999756,1391.830078 
	C1703.999878,1354.337402 1703.994873,1316.844727 1704.003418,1279.352051 
	C1704.005859,1268.400513 1708.292114,1258.908813 1715.523926,1251.179077 
	C1728.364380,1237.454468 1744.633179,1232.874634 1762.962402,1236.214355 
	C1771.151489,1237.706299 1778.961548,1240.884644 1784.561035,1247.343750 
	C1792.802124,1256.849976 1796.093628,1268.203125 1796.047729,1280.771484 
	C1795.913330,1317.597168 1795.999634,1354.423706 1795.999512,1391.249878 
	C1795.999512,1393.341187 1795.999634,1395.432373 1795.999634,1397.596924 
	C1811.385254,1397.596924 1825.941772,1397.596924 1841.000000,1397.596924 
	C1841.000000,1395.064819 1841.000000,1392.931763 1841.000000,1390.798706 
	C1841.000244,1353.972534 1840.885864,1317.145874 1841.063110,1280.320557 
	C1841.125122,1267.438110 1846.399170,1256.285034 1855.901123,1247.910400 
	C1868.026001,1237.224365 1882.536621,1233.080566 1898.709229,1236.036377 
	C1907.819336,1237.701416 1916.421875,1240.757568 1922.438843,1248.156982 
	C1929.876953,1257.304321 1933.137329,1267.948730 1933.073242,1279.871460 
	C1932.874023,1317.029785 1932.995605,1354.189941 1933.011841,1391.349365 
	C1933.012695,1393.438965 1933.184937,1395.528564 1933.274780,1397.561157 
	C1948.457764,1397.561157 1963.015015,1397.561157 1977.999878,1397.561157 
	C1977.999878,1394.982544 1978.000000,1392.840332 1978.000000,1390.697998 
	C1978.000122,1350.872437 1978.041870,1311.046753 1977.954468,1271.221436 
	C1977.941406,1265.273193 1977.902588,1259.224365 1976.881104,1253.396484 
	C1972.461914,1228.182861 1960.340576,1208.643433 1934.615112,1198.839478 
M803.519531,1404.000000 
	C809.135193,1403.674683 814.772705,1403.562134 820.362488,1402.985962 
	C839.886963,1400.973022 856.894348,1392.988647 871.377686,1380.000122 
	C891.632019,1361.836792 902.351074,1338.458130 904.737244,1311.770752 
	C906.651917,1290.356934 904.451538,1269.187866 894.783142,1249.267700 
	C885.376587,1229.887329 871.607300,1214.891235 852.567810,1204.888184 
	C832.037354,1194.101440 809.987305,1192.001343 787.461670,1195.208740 
	C767.651489,1198.029297 750.311584,1206.454346 736.331909,1221.148560 
	C734.933044,1222.618774 733.393738,1223.955566 730.805054,1226.411743 
	C730.805054,1216.664551 730.805054,1208.587280 730.805054,1200.376465 
	C717.332153,1200.376465 704.444214,1200.376465 691.331726,1200.376465 
	C691.331726,1294.285767 691.331726,1387.818115 691.331726,1481.502441 
	C706.005493,1481.502441 720.342407,1481.502441 735.084656,1481.502441 
	C735.084656,1445.933105 735.084656,1410.859131 735.084656,1374.714233 
	C754.324951,1393.551758 776.112122,1404.281250 803.519531,1404.000000 
M48.872513,1351.657715 
	C56.732498,1359.685791 63.877522,1368.609009 72.590981,1375.568481 
	C95.690933,1394.018433 123.039314,1401.913940 152.061615,1403.822388 
	C169.090256,1404.942261 186.209564,1404.234131 203.103668,1400.983643 
	C225.782715,1396.620361 246.701706,1388.140625 265.585236,1374.745361 
	C268.888275,1372.402344 269.467834,1370.033813 267.259247,1366.416626 
	C263.568054,1360.370972 260.380951,1354.019287 256.916992,1347.832642 
	C254.131104,1342.856934 251.249725,1337.934570 248.261719,1332.728882 
	C224.060013,1353.040039 196.109085,1360.309326 165.827072,1359.865112 
	C157.964920,1359.749756 150.000671,1358.568848 142.300308,1356.885132 
	C114.615326,1350.831421 92.375389,1336.653442 79.517654,1310.744751 
	C66.118530,1283.744995 64.564644,1255.161011 71.932732,1226.207153 
	C80.200806,1193.716553 100.668007,1172.118286 132.556488,1161.860962 
	C147.062546,1157.195068 161.988113,1155.551758 177.434509,1156.805908 
	C198.933746,1158.551270 218.669403,1164.012695 235.096893,1178.647339 
	C237.059082,1180.395264 238.505951,1180.408936 239.934189,1178.170288 
	C246.851822,1167.327759 253.838882,1156.528320 260.596252,1145.586914 
	C261.142853,1144.701904 260.627777,1142.166870 259.782318,1141.574707 
	C253.437881,1137.131714 247.135254,1132.526489 240.349670,1128.836060 
	C224.646530,1120.296021 207.713318,1115.803589 189.913849,1113.830933 
	C173.040176,1111.961060 156.199249,1111.773804 139.508530,1114.217285 
	C122.150856,1116.758301 105.701851,1122.472290 90.293411,1131.223999 
	C66.734680,1144.604858 48.967403,1163.423218 36.430389,1187.242920 
	C25.623716,1207.775024 21.084612,1230.033081 20.117971,1252.975952 
	C19.433905,1269.211914 21.254196,1285.370361 25.066885,1301.193359 
	C29.448639,1319.378052 36.938351,1336.186890 48.872513,1351.657715 
M502.402374,1487.000000 
	C506.987579,1486.492065 511.664276,1486.397339 516.142517,1485.406006 
	C538.086121,1480.548828 553.243042,1466.614746 562.676086,1447.125732 
	C571.204224,1429.506348 577.921509,1410.987915 585.016357,1392.702515 
	C595.870361,1364.728638 606.393677,1336.626099 616.999634,1308.556396 
	C628.071167,1279.254395 639.078735,1249.928223 650.104248,1220.608887 
	C652.616272,1213.928955 655.087524,1207.233521 657.776550,1200.010742 
	C642.307190,1200.010742 627.817871,1200.071777 613.329956,1199.957520 
	C610.540588,1199.935547 609.724365,1201.365234 608.937927,1203.626221 
	C596.423889,1239.604736 583.814575,1275.549805 571.281494,1311.521729 
	C566.727722,1324.591797 562.316833,1337.711670 557.728821,1351.136108 
	C557.097534,1350.053955 556.578186,1349.412598 556.316589,1348.679321 
	C546.796753,1321.988037 537.300293,1295.288452 527.801758,1268.589355 
	C520.174255,1247.149780 512.504883,1225.724731 504.969452,1204.252686 
	C503.866241,1201.109131 502.213440,1199.772949 498.792297,1199.933228 
	C493.304596,1200.190308 487.795959,1200.000122 482.296173,1199.999878 
	C473.189362,1199.999512 464.082520,1199.999756 454.561493,1199.999756 
	C455.187988,1202.555176 455.452087,1204.539429 456.153351,1206.354736 
	C464.828888,1228.813477 473.545197,1251.256592 482.295959,1273.686157 
	C497.818207,1313.472168 513.269348,1353.286499 529.027588,1392.979004 
	C531.245667,1398.565918 531.697388,1403.446167 529.195374,1408.936279 
	C527.084961,1413.567261 525.876160,1418.599976 523.969971,1423.334717 
	C515.859924,1443.479248 502.431244,1448.978027 482.561920,1445.137817 
	C476.519684,1443.969971 470.772064,1441.277710 464.681946,1439.213257 
	C464.442749,1439.777954 464.129395,1440.336914 463.963074,1440.936768 
	C460.973114,1451.717163 458.165741,1462.552612 454.923279,1473.256226 
	C453.966736,1476.413818 454.884186,1477.566040 457.512146,1478.864380 
	C471.403473,1485.728149 486.139069,1487.797363 502.402374,1487.000000 
M1166.411743,1397.123901 
	C1174.881714,1399.122070 1183.268311,1401.648071 1191.839722,1403.004883 
	C1208.054199,1405.571289 1224.174805,1404.247437 1239.891479,1399.512939 
	C1261.113403,1393.119873 1278.335205,1380.836670 1292.087280,1363.482422 
	C1305.085205,1347.079834 1312.286499,1328.317383 1313.834595,1307.672241 
	C1315.156738,1290.038574 1312.662354,1272.852173 1305.322021,1256.357300 
	C1295.686401,1234.704834 1280.468140,1218.389160 1259.971069,1207.091919 
	C1236.821899,1194.332764 1211.945679,1191.426025 1186.063110,1195.965576 
	C1156.314575,1201.183350 1133.045166,1216.899536 1116.406616,1241.539673 
	C1100.382935,1265.269287 1095.524048,1292.198975 1101.366089,1320.117065 
	C1109.041748,1356.797729 1130.843384,1382.514038 1166.411743,1397.123901 
M1402.065186,1402.541016 
	C1405.994751,1403.022461 1409.913086,1403.773682 1413.855957,1403.939575 
	C1432.365112,1404.719238 1450.658447,1403.503174 1467.855103,1395.840698 
	C1482.990601,1389.096802 1495.184204,1379.061279 1501.433105,1363.117798 
	C1505.093140,1353.779663 1506.134033,1344.172363 1505.107666,1334.108276 
	C1503.508667,1318.429199 1496.587036,1306.253052 1483.320679,1297.725952 
	C1470.064697,1289.205322 1455.129761,1285.086304 1440.144165,1280.929565 
	C1426.830933,1277.236816 1413.515991,1273.378174 1400.569824,1268.596680 
	C1392.343140,1265.557861 1388.931885,1256.040039 1390.648193,1247.570435 
	C1392.804321,1236.927979 1400.991333,1232.726196 1409.730347,1230.214844 
	C1426.682129,1225.343872 1443.610962,1227.570923 1459.716064,1234.096069 
	C1469.080200,1237.890015 1477.797852,1243.280029 1487.451782,1248.286621 
	C1492.342896,1238.127075 1497.599976,1227.207153 1503.062134,1215.861450 
	C1497.370728,1212.368286 1492.380615,1208.790161 1486.960938,1206.066650 
	C1460.873901,1192.957275 1433.208862,1188.388428 1404.646362,1194.260498 
	C1376.121582,1200.124756 1354.266357,1214.670288 1349.578613,1246.113647 
	C1347.221436,1261.924194 1350.401733,1276.990723 1361.692993,1289.030029 
	C1372.924072,1301.005371 1387.893188,1306.608887 1403.272827,1310.987549 
	C1418.007690,1315.182373 1432.966309,1318.624146 1447.600952,1323.129883 
	C1466.728638,1329.019043 1467.790527,1345.427246 1459.584473,1356.522461 
	C1454.862061,1362.907593 1447.342651,1365.587646 1439.798340,1366.879883 
	C1423.371216,1369.693970 1406.967163,1368.739014 1391.470581,1362.520386 
	C1380.255981,1358.020142 1369.690063,1351.903442 1358.047485,1346.116211 
	C1352.997803,1356.135864 1347.459961,1367.123901 1341.865112,1378.225098 
	C1359.776733,1391.716187 1379.532593,1399.369629 1402.065186,1402.541016 
M948.498047,1199.999756 
	C940.217163,1199.999756 931.936340,1199.999756 923.485352,1199.999756 
	C923.485352,1212.653564 923.485352,1224.659180 923.485352,1237.300293 
	C937.859253,1237.300293 951.753296,1237.300293 965.999756,1237.300293 
	C965.999756,1240.425171 965.979980,1242.908936 966.002747,1245.392334 
	C966.327148,1280.824829 965.325500,1316.334717 967.380188,1351.666870 
	C969.240295,1383.652954 990.833923,1400.679321 1020.998962,1403.874390 
	C1037.743408,1405.647949 1053.953369,1402.404785 1069.444580,1395.760742 
	C1071.749634,1394.772095 1073.396484,1393.833374 1072.168823,1390.604858 
	C1070.956299,1387.416138 1070.709473,1383.868652 1069.941650,1380.500732 
	C1068.237183,1373.025757 1066.471558,1365.564697 1064.961060,1359.084595 
	C1056.104126,1360.473877 1048.093994,1362.308594 1039.994385,1362.884521 
	C1021.209412,1364.220703 1011.237183,1351.092041 1011.080139,1333.970947 
	C1010.800537,1303.489258 1010.998596,1273.003174 1011.019836,1242.518921 
	C1011.021057,1240.773560 1011.229858,1239.028442 1011.380432,1236.686279 
	C1029.546875,1236.686279 1047.106689,1236.686279 1064.534668,1236.686279 
	C1064.534668,1224.148315 1064.534668,1212.259888 1064.534668,1199.739990 
	C1046.516357,1199.739990 1028.955444,1199.739990 1011.231628,1199.739990 
	C1011.137756,1197.629028 1011.015930,1196.147461 1011.014465,1194.665771 
	C1010.998901,1178.840576 1010.913940,1163.014648 1011.063904,1147.190918 
	C1011.100586,1143.327148 1009.860291,1141.776733 1005.891357,1141.940430 
	C1000.070984,1142.180786 994.233276,1141.999756 988.402954,1141.999268 
	C981.129700,1141.998657 973.856445,1141.999146 965.964478,1141.999146 
	C965.964478,1161.583374 965.964478,1180.476318 965.964478,1199.999756 
	C960.059265,1199.999756 954.778137,1199.999756 948.498047,1199.999756 
M402.674866,1239.000366 
	C412.281097,1239.767456 421.887299,1240.534668 431.916809,1241.335571 
	C433.841614,1226.414185 435.769226,1211.471191 437.717072,1196.371094 
	C422.176727,1192.896240 407.157013,1192.939453 392.203796,1197.064453 
	C376.932404,1201.277344 364.849457,1210.084473 355.530151,1223.115723 
	C355.017517,1216.940430 354.798706,1211.137817 355.092224,1205.361328 
	C355.297760,1201.316528 354.120636,1199.723755 349.838104,1199.914673 
	C342.690826,1200.233276 335.518951,1200.000366 328.357422,1200.000000 
	C322.422577,1199.999634 316.487732,1199.999878 310.491272,1199.999878 
	C310.491272,1266.385132 310.491272,1332.027466 310.491272,1397.534058 
	C325.542297,1397.534058 340.097870,1397.534058 355.019073,1397.534058 
	C355.019073,1394.922852 355.019440,1392.772705 355.019043,1390.622681 
	C355.012634,1356.147461 355.235199,1321.670166 354.924927,1287.197754 
	C354.689728,1261.063843 376.054138,1240.206299 402.674866,1239.000366 
M1554.009033,1203.783813 
	C1554.009033,1268.334473 1554.009033,1332.885132 1554.009033,1397.645386 
	C1569.297363,1397.645386 1583.847534,1397.645386 1598.528809,1397.645386 
	C1598.528809,1331.649292 1598.528809,1266.008789 1598.528809,1200.024292 
	C1584.418579,1200.024292 1570.776611,1199.962402 1557.137939,1200.145874 
	C1556.090210,1200.160034 1555.065918,1201.902832 1554.009033,1203.783813 
M1554.490234,1119.008545 
	C1546.903442,1126.734497 1545.176880,1136.025879 1548.191528,1146.026611 
	C1551.563599,1157.213257 1559.608398,1163.016602 1571.081177,1165.268188 
	C1586.266357,1168.248657 1605.757324,1158.989624 1605.903931,1138.337769 
	C1605.998047,1125.081909 1600.243896,1117.682861 1589.869873,1112.555786 
	C1578.051880,1106.714844 1564.017944,1109.593628 1554.490234,1119.008545 
z"/>
<path fill="#2E30FF" opacity="1.000000" stroke="none" 
	d="
M1240.651367,179.296051 
	C1213.908325,167.149765 1186.537964,158.419830 1157.821167,153.889816 
	C1138.325195,150.814331 1118.806885,148.651871 1099.038696,148.964676 
	C1087.470703,149.147736 1075.846191,148.306656 1064.337280,149.152679 
	C1039.161743,151.003326 1014.257996,154.587097 989.824707,161.487259 
	C967.943604,167.666656 946.989868,175.928726 927.000671,186.592438 
	C909.796692,195.770294 893.662598,206.572159 878.908997,219.473984 
	C861.117554,235.032318 845.268188,252.268402 831.913513,271.739166 
	C827.263306,278.519073 823.041443,285.632446 819.108521,292.857330 
	C805.238403,318.337433 794.652893,345.124481 788.794373,373.586365 
	C786.008423,387.121216 783.412354,400.788391 782.172302,414.525787 
	C780.416077,433.980133 778.809204,453.581146 779.243042,473.072632 
	C780.191956,515.702271 786.427673,557.555420 801.981934,597.635010 
	C812.330688,624.301270 826.133362,649.014404 843.976685,671.328064 
	C866.045410,698.925781 892.961975,720.782471 924.067505,737.602722 
	C955.289124,754.485779 988.435791,765.577087 1023.438538,770.956482 
	C1038.258179,773.234070 1053.218994,774.945374 1068.180054,775.856873 
	C1084.756958,776.866821 1101.455200,777.618164 1118.015991,776.791077 
	C1149.042603,775.241638 1179.613281,770.254517 1209.591431,761.747864 
	C1229.163696,756.193970 1248.338257,749.476624 1266.270508,740.035278 
	C1282.731323,731.368774 1298.411865,721.172546 1314.142700,711.187561 
	C1321.736938,706.367065 1328.656372,700.483643 1336.188599,694.851868 
	C1341.523193,704.298218 1346.765381,713.416321 1351.852051,722.620361 
	C1364.555420,745.606689 1377.185547,768.633423 1389.851440,791.640381 
	C1393.034546,797.422241 1396.416138,803.106567 1399.280273,809.041321 
	C1399.806396,810.131470 1398.773682,812.880920 1397.622925,813.732117 
	C1387.014404,821.579651 1376.574219,829.744690 1365.391235,836.702209 
	C1352.088135,844.978577 1338.402588,852.767578 1324.351685,859.689575 
	C1288.245972,877.476318 1250.514038,890.894958 1211.017334,898.899536 
	C1194.898560,902.166382 1178.629761,904.941772 1162.302490,906.863647 
	C1144.908813,908.911194 1127.382812,910.037842 1109.881958,910.911194 
	C1093.619873,911.722717 1077.270508,912.573914 1061.039917,911.774414 
	C1039.945068,910.735413 1018.903687,908.324585 997.886597,906.064636 
	C968.919739,902.949829 940.836304,895.590332 913.273010,886.498413 
	C898.900391,881.757629 884.912292,875.687134 871.104858,869.434753 
	C849.567932,859.682190 828.839905,848.279663 809.780640,834.254883 
	C795.983276,824.102051 782.455566,813.449280 769.770874,801.956299 
	C757.652466,790.976440 745.824768,779.390320 735.597351,766.680176 
	C722.409302,750.290649 710.228271,732.972778 698.894043,715.236511 
	C680.852539,687.004761 667.673035,656.370544 657.712280,624.390442 
	C650.798950,602.194275 644.832520,579.742126 641.991821,556.613831 
	C639.740845,538.286865 637.150879,519.944580 636.180847,501.531708 
	C634.991760,478.961731 634.216125,456.258728 635.272583,433.707428 
	C636.895508,399.063721 642.190430,364.808929 651.398865,331.272034 
	C660.750671,297.213043 674.014954,264.767242 690.978333,233.756271 
	C703.863220,210.201263 718.960510,188.190048 736.096924,167.632385 
	C752.350403,148.133972 770.469238,130.471420 790.046326,114.181305 
	C818.319336,90.655296 849.375305,71.716858 882.574219,56.290817 
	C913.488220,41.926476 945.692871,31.030775 979.327332,25.082232 
	C998.301147,21.726536 1017.424683,18.633549 1036.613037,17.224384 
	C1060.102661,15.499352 1083.770996,14.510011 1107.287720,15.330770 
	C1130.671997,16.146902 1153.983398,19.423754 1177.291016,21.951019 
	C1199.318848,24.339506 1220.810181,29.656597 1241.860474,36.271557 
	C1257.380493,41.148682 1272.436401,47.598301 1287.480713,53.871204 
	C1309.520508,63.061073 1330.031250,75.104080 1349.520508,88.852791 
	C1357.456055,94.450928 1365.107178,100.456429 1372.812134,106.374893 
	C1375.307373,108.291588 1376.709839,110.034317 1374.270874,113.731079 
	C1363.645142,129.836304 1353.486694,146.250259 1343.186157,162.569473 
	C1331.037964,181.815567 1318.923340,201.082840 1306.769653,220.325424 
	C1306.251099,221.146454 1305.485718,221.811646 1304.565308,222.855789 
	C1285.406616,205.255981 1264.105347,191.016983 1240.651367,179.296051 
z"/>
<path fill="#2E30FF" opacity="1.000000" stroke="none" 
	d="
M1934.999634,1198.920654 
	C1960.340576,1208.643433 1972.461914,1228.182861 1976.881104,1253.396484 
	C1977.902588,1259.224365 1977.941406,1265.273193 1977.954468,1271.221436 
	C1978.041870,1311.046753 1978.000122,1350.872437 1978.000000,1390.697998 
	C1978.000000,1392.840332 1977.999878,1394.982544 1977.999878,1397.561157 
	C1963.015015,1397.561157 1948.457764,1397.561157 1933.274780,1397.561157 
	C1933.184937,1395.528564 1933.012695,1393.438965 1933.011841,1391.349365 
	C1932.995605,1354.189941 1932.874023,1317.029785 1933.073242,1279.871460 
	C1933.137329,1267.948730 1929.876953,1257.304321 1922.438843,1248.156982 
	C1916.421875,1240.757568 1907.819336,1237.701416 1898.709229,1236.036377 
	C1882.536621,1233.080566 1868.026001,1237.224365 1855.901123,1247.910400 
	C1846.399170,1256.285034 1841.125122,1267.438110 1841.063110,1280.320557 
	C1840.885864,1317.145874 1841.000244,1353.972534 1841.000000,1390.798706 
	C1841.000000,1392.931763 1841.000000,1395.064819 1841.000000,1397.596924 
	C1825.941772,1397.596924 1811.385254,1397.596924 1795.999634,1397.596924 
	C1795.999634,1395.432373 1795.999512,1393.341187 1795.999512,1391.249878 
	C1795.999634,1354.423706 1795.913330,1317.597168 1796.047729,1280.771484 
	C1796.093628,1268.203125 1792.802124,1256.849976 1784.561035,1247.343750 
	C1778.961548,1240.884644 1771.151489,1237.706299 1762.962402,1236.214355 
	C1744.633179,1232.874634 1728.364380,1237.454468 1715.523926,1251.179077 
	C1708.292114,1258.908813 1704.005859,1268.400513 1704.003418,1279.352051 
	C1703.994873,1316.844727 1703.999878,1354.337402 1703.999756,1391.830078 
	C1703.999756,1393.626831 1703.999878,1395.423462 1703.999878,1397.608154 
	C1688.920166,1397.608154 1674.363647,1397.608154 1659.402100,1397.608154 
	C1659.402100,1331.942871 1659.402100,1266.393799 1659.402100,1200.421875 
	C1674.019409,1200.421875 1688.576416,1200.421875 1703.708130,1200.421875 
	C1703.708130,1207.998535 1703.708130,1215.581665 1703.708130,1223.164917 
	C1704.028809,1223.453857 1704.349487,1223.742676 1704.670044,1224.031616 
	C1721.475342,1203.110596 1743.451294,1193.509033 1769.675781,1194.074585 
	C1796.264526,1194.647827 1817.183350,1205.370117 1829.635132,1229.917603 
	C1857.651978,1195.110229 1893.411255,1187.731812 1934.999634,1198.920654 
z"/>
<path fill="#2E30FF" opacity="1.000000" stroke="none" 
	d="
M803.026306,1404.000000 
	C776.112122,1404.281250 754.324951,1393.551758 735.084656,1374.714233 
	C735.084656,1410.859131 735.084656,1445.933105 735.084656,1481.502441 
	C720.342407,1481.502441 706.005493,1481.502441 691.331726,1481.502441 
	C691.331726,1387.818115 691.331726,1294.285767 691.331726,1200.376465 
	C704.444214,1200.376465 717.332153,1200.376465 730.805054,1200.376465 
	C730.805054,1208.587280 730.805054,1216.664551 730.805054,1226.411743 
	C733.393738,1223.955566 734.933044,1222.618774 736.331909,1221.148560 
	C750.311584,1206.454346 767.651489,1198.029297 787.461670,1195.208740 
	C809.987305,1192.001343 832.037354,1194.101440 852.567810,1204.888184 
	C871.607300,1214.891235 885.376587,1229.887329 894.783142,1249.267700 
	C904.451538,1269.187866 906.651917,1290.356934 904.737244,1311.770752 
	C902.351074,1338.458130 891.632019,1361.836792 871.377686,1380.000122 
	C856.894348,1392.988647 839.886963,1400.973022 820.362488,1402.985962 
	C814.772705,1403.562134 809.135193,1403.674683 803.026306,1404.000000 
M736.379211,1286.124146 
	C735.321960,1296.136841 734.775574,1306.246338 737.140381,1316.052368 
	C741.011597,1332.104980 748.792542,1345.870850 763.388123,1354.719849 
	C782.359497,1366.221924 802.594055,1367.276978 822.929382,1359.726440 
	C839.178833,1353.693115 850.136292,1341.701660 856.081421,1325.165039 
	C861.074036,1311.278198 861.634094,1297.119873 858.867432,1282.897339 
	C855.762573,1266.936279 848.016541,1253.583008 834.072937,1244.503540 
	C819.572205,1235.060913 803.777954,1232.505737 786.664368,1234.864136 
	C761.320801,1238.356689 739.723938,1259.765869 736.379211,1286.124146 
z"/>
<path fill="#2E30FF" opacity="1.000000" stroke="none" 
	d="
M48.672325,1351.356567 
	C36.938351,1336.186890 29.448639,1319.378052 25.066885,1301.193359 
	C21.254196,1285.370361 19.433905,1269.211914 20.117971,1252.975952 
	C21.084612,1230.033081 25.623716,1207.775024 36.430389,1187.242920 
	C48.967403,1163.423218 66.734680,1144.604858 90.293411,1131.223999 
	C105.701851,1122.472290 122.150856,1116.758301 139.508530,1114.217285 
	C156.199249,1111.773804 173.040176,1111.961060 189.913849,1113.830933 
	C207.713318,1115.803589 224.646530,1120.296021 240.349670,1128.836060 
	C247.135254,1132.526489 253.437881,1137.131714 259.782318,1141.574707 
	C260.627777,1142.166870 261.142853,1144.701904 260.596252,1145.586914 
	C253.838882,1156.528320 246.851822,1167.327759 239.934189,1178.170288 
	C238.505951,1180.408936 237.059082,1180.395264 235.096893,1178.647339 
	C218.669403,1164.012695 198.933746,1158.551270 177.434509,1156.805908 
	C161.988113,1155.551758 147.062546,1157.195068 132.556488,1161.860962 
	C100.668007,1172.118286 80.200806,1193.716553 71.932732,1226.207153 
	C64.564644,1255.161011 66.118530,1283.744995 79.517654,1310.744751 
	C92.375389,1336.653442 114.615326,1350.831421 142.300308,1356.885132 
	C150.000671,1358.568848 157.964920,1359.749756 165.827072,1359.865112 
	C196.109085,1360.309326 224.060013,1353.040039 248.261719,1332.728882 
	C251.249725,1337.934570 254.131104,1342.856934 256.916992,1347.832642 
	C260.380951,1354.019287 263.568054,1360.370972 267.259247,1366.416626 
	C269.467834,1370.033813 268.888275,1372.402344 265.585236,1374.745361 
	C246.701706,1388.140625 225.782715,1396.620361 203.103668,1400.983643 
	C186.209564,1404.234131 169.090256,1404.942261 152.061615,1403.822388 
	C123.039314,1401.913940 95.690933,1394.018433 72.590981,1375.568481 
	C63.877522,1368.609009 56.732498,1359.685791 48.672325,1351.356567 
z"/>
<path fill="#2E30FF" opacity="1.000000" stroke="none" 
	d="
M501.914490,1487.000000 
	C486.139069,1487.797363 471.403473,1485.728149 457.512146,1478.864380 
	C454.884186,1477.566040 453.966736,1476.413818 454.923279,1473.256226 
	C458.165741,1462.552612 460.973114,1451.717163 463.963074,1440.936768 
	C464.129395,1440.336914 464.442749,1439.777954 464.681946,1439.213257 
	C470.772064,1441.277710 476.519684,1443.969971 482.561920,1445.137817 
	C502.431244,1448.978027 515.859924,1443.479248 523.969971,1423.334717 
	C525.876160,1418.599976 527.084961,1413.567261 529.195374,1408.936279 
	C531.697388,1403.446167 531.245667,1398.565918 529.027588,1392.979004 
	C513.269348,1353.286499 497.818207,1313.472168 482.295959,1273.686157 
	C473.545197,1251.256592 464.828888,1228.813477 456.153351,1206.354736 
	C455.452087,1204.539429 455.187988,1202.555176 454.561493,1199.999756 
	C464.082520,1199.999756 473.189362,1199.999512 482.296173,1199.999878 
	C487.795959,1200.000122 493.304596,1200.190308 498.792297,1199.933228 
	C502.213440,1199.772949 503.866241,1201.109131 504.969452,1204.252686 
	C512.504883,1225.724731 520.174255,1247.149780 527.801758,1268.589355 
	C537.300293,1295.288452 546.796753,1321.988037 556.316589,1348.679321 
	C556.578186,1349.412598 557.097534,1350.053955 557.728821,1351.136108 
	C562.316833,1337.711670 566.727722,1324.591797 571.281494,1311.521729 
	C583.814575,1275.549805 596.423889,1239.604736 608.937927,1203.626221 
	C609.724365,1201.365234 610.540588,1199.935547 613.329956,1199.957520 
	C627.817871,1200.071777 642.307190,1200.010742 657.776550,1200.010742 
	C655.087524,1207.233521 652.616272,1213.928955 650.104248,1220.608887 
	C639.078735,1249.928223 628.071167,1279.254395 616.999634,1308.556396 
	C606.393677,1336.626099 595.870361,1364.728638 585.016357,1392.702515 
	C577.921509,1410.987915 571.204224,1429.506348 562.676086,1447.125732 
	C553.243042,1466.614746 538.086121,1480.548828 516.142517,1485.406006 
	C511.664276,1486.397339 506.987579,1486.492065 501.914490,1487.000000 
z"/>
<path fill="#2E30FF" opacity="1.000000" stroke="none" 
	d="
M1166.039551,1397.008057 
	C1130.843384,1382.514038 1109.041748,1356.797729 1101.366089,1320.117065 
	C1095.524048,1292.198975 1100.382935,1265.269287 1116.406616,1241.539673 
	C1133.045166,1216.899536 1156.314575,1201.183350 1186.063110,1195.965576 
	C1211.945679,1191.426025 1236.821899,1194.332764 1259.971069,1207.091919 
	C1280.468140,1218.389160 1295.686401,1234.704834 1305.322021,1256.357300 
	C1312.662354,1272.852173 1315.156738,1290.038574 1313.834595,1307.672241 
	C1312.286499,1328.317383 1305.085205,1347.079834 1292.087280,1363.482422 
	C1278.335205,1380.836670 1261.113403,1393.119873 1239.891479,1399.512939 
	C1224.174805,1404.247437 1208.054199,1405.571289 1191.839722,1403.004883 
	C1183.268311,1401.648071 1174.881714,1399.122070 1166.039551,1397.008057 
M1149.122925,1271.682861 
	C1144.896240,1283.666748 1143.198486,1295.776367 1144.829468,1308.611938 
	C1147.303101,1328.078979 1155.497559,1343.709351 1172.053955,1354.622803 
	C1184.019409,1362.510132 1197.280029,1364.790894 1211.359985,1364.035278 
	C1230.667114,1362.998901 1246.080444,1355.016602 1257.476807,1339.264893 
	C1269.930908,1322.051270 1271.161255,1302.661133 1267.639404,1282.829712 
	C1264.347046,1264.291870 1254.031738,1250.029053 1237.201538,1241.125366 
	C1220.369141,1232.220703 1202.505005,1231.554199 1184.787720,1237.370483 
	C1168.016724,1242.876099 1155.870483,1254.128296 1149.122925,1271.682861 
z"/>
<path fill="#2E30FF" opacity="1.000000" stroke="none" 
	d="
M1401.658325,1402.357178 
	C1379.532593,1399.369629 1359.776733,1391.716187 1341.865112,1378.225098 
	C1347.459961,1367.123901 1352.997803,1356.135864 1358.047485,1346.116211 
	C1369.690063,1351.903442 1380.255981,1358.020142 1391.470581,1362.520386 
	C1406.967163,1368.739014 1423.371216,1369.693970 1439.798340,1366.879883 
	C1447.342651,1365.587646 1454.862061,1362.907593 1459.584473,1356.522461 
	C1467.790527,1345.427246 1466.728638,1329.019043 1447.600952,1323.129883 
	C1432.966309,1318.624146 1418.007690,1315.182373 1403.272827,1310.987549 
	C1387.893188,1306.608887 1372.924072,1301.005371 1361.692993,1289.030029 
	C1350.401733,1276.990723 1347.221436,1261.924194 1349.578613,1246.113647 
	C1354.266357,1214.670288 1376.121582,1200.124756 1404.646362,1194.260498 
	C1433.208862,1188.388428 1460.873901,1192.957275 1486.960938,1206.066650 
	C1492.380615,1208.790161 1497.370728,1212.368286 1503.062134,1215.861450 
	C1497.599976,1227.207153 1492.342896,1238.127075 1487.451782,1248.286621 
	C1477.797852,1243.280029 1469.080200,1237.890015 1459.716064,1234.096069 
	C1443.610962,1227.570923 1426.682129,1225.343872 1409.730347,1230.214844 
	C1400.991333,1232.726196 1392.804321,1236.927979 1390.648193,1247.570435 
	C1388.931885,1256.040039 1392.343140,1265.557861 1400.569824,1268.596680 
	C1413.515991,1273.378174 1426.830933,1277.236816 1440.144165,1280.929565 
	C1455.129761,1285.086304 1470.064697,1289.205322 1483.320679,1297.725952 
	C1496.587036,1306.253052 1503.508667,1318.429199 1505.107666,1334.108276 
	C1506.134033,1344.172363 1505.093140,1353.779663 1501.433105,1363.117798 
	C1495.184204,1379.061279 1482.990601,1389.096802 1467.855103,1395.840698 
	C1450.658447,1403.503174 1432.365112,1404.719238 1413.855957,1403.939575 
	C1409.913086,1403.773682 1405.994751,1403.022461 1401.658325,1402.357178 
z"/>
<path fill="#2E30FF" opacity="1.000000" stroke="none" 
	d="
M948.997498,1199.999756 
	C954.778137,1199.999756 960.059265,1199.999756 965.964478,1199.999756 
	C965.964478,1180.476318 965.964478,1161.583374 965.964478,1141.999146 
	C973.856445,1141.999146 981.129700,1141.998657 988.402954,1141.999268 
	C994.233276,1141.999756 1000.070984,1142.180786 1005.891357,1141.940430 
	C1009.860291,1141.776733 1011.100586,1143.327148 1011.063904,1147.190918 
	C1010.913940,1163.014648 1010.998901,1178.840576 1011.014465,1194.665771 
	C1011.015930,1196.147461 1011.137756,1197.629028 1011.231628,1199.739990 
	C1028.955444,1199.739990 1046.516357,1199.739990 1064.534668,1199.739990 
	C1064.534668,1212.259888 1064.534668,1224.148315 1064.534668,1236.686279 
	C1047.106689,1236.686279 1029.546875,1236.686279 1011.380432,1236.686279 
	C1011.229858,1239.028442 1011.021057,1240.773560 1011.019836,1242.518921 
	C1010.998596,1273.003174 1010.800537,1303.489258 1011.080139,1333.970947 
	C1011.237183,1351.092041 1021.209412,1364.220703 1039.994385,1362.884521 
	C1048.093994,1362.308594 1056.104126,1360.473877 1064.961060,1359.084595 
	C1066.471558,1365.564697 1068.237183,1373.025757 1069.941650,1380.500732 
	C1070.709473,1383.868652 1070.956299,1387.416138 1072.168823,1390.604858 
	C1073.396484,1393.833374 1071.749634,1394.772095 1069.444580,1395.760742 
	C1053.953369,1402.404785 1037.743408,1405.647949 1020.998962,1403.874390 
	C990.833923,1400.679321 969.240295,1383.652954 967.380188,1351.666870 
	C965.325500,1316.334717 966.327148,1280.824829 966.002747,1245.392334 
	C965.979980,1242.908936 965.999756,1240.425171 965.999756,1237.300293 
	C951.753296,1237.300293 937.859253,1237.300293 923.485352,1237.300293 
	C923.485352,1224.659180 923.485352,1212.653564 923.485352,1199.999756 
	C931.936340,1199.999756 940.217163,1199.999756 948.997498,1199.999756 
z"/>
<path fill="#2E30FF" opacity="1.000000" stroke="none" 
	d="
M402.201569,1239.000732 
	C376.054138,1240.206299 354.689728,1261.063843 354.924927,1287.197754 
	C355.235199,1321.670166 355.012634,1356.147461 355.019043,1390.622681 
	C355.019440,1392.772705 355.019073,1394.922852 355.019073,1397.534058 
	C340.097870,1397.534058 325.542297,1397.534058 310.491272,1397.534058 
	C310.491272,1332.027466 310.491272,1266.385132 310.491272,1199.999878 
	C316.487732,1199.999878 322.422577,1199.999634 328.357422,1200.000000 
	C335.518951,1200.000366 342.690826,1200.233276 349.838104,1199.914673 
	C354.120636,1199.723755 355.297760,1201.316528 355.092224,1205.361328 
	C354.798706,1211.137817 355.017517,1216.940430 355.530151,1223.115723 
	C364.849457,1210.084473 376.932404,1201.277344 392.203796,1197.064453 
	C407.157013,1192.939453 422.176727,1192.896240 437.717072,1196.371094 
	C435.769226,1211.471191 433.841614,1226.414185 431.916809,1241.335571 
	C421.887299,1240.534668 412.281097,1239.767456 402.201569,1239.000732 
z"/>
<path fill="#2E30FF" opacity="1.000000" stroke="none" 
	d="
M1554.019897,1203.312988 
	C1555.065918,1201.902832 1556.090210,1200.160034 1557.137939,1200.145874 
	C1570.776611,1199.962402 1584.418579,1200.024292 1598.528809,1200.024292 
	C1598.528809,1266.008789 1598.528809,1331.649292 1598.528809,1397.645386 
	C1583.847534,1397.645386 1569.297363,1397.645386 1554.009033,1397.645386 
	C1554.009033,1332.885132 1554.009033,1268.334473 1554.019897,1203.312988 
z"/>
<path fill="#2E30FF" opacity="1.000000" stroke="none" 
	d="
M1554.745605,1118.753784 
	C1564.017944,1109.593628 1578.051880,1106.714844 1589.869873,1112.555786 
	C1600.243896,1117.682861 1605.998047,1125.081909 1605.903931,1138.337769 
	C1605.757324,1158.989624 1586.266357,1168.248657 1571.081177,1165.268188 
	C1559.608398,1163.016602 1551.563599,1157.213257 1548.191528,1146.026611 
	C1545.176880,1136.025879 1546.903442,1126.734497 1554.745605,1118.753784 
z"/>
<path fill="#4C6971" opacity="1.000000" stroke="none" 
	d="
M736.571045,1285.726318 
	C739.723938,1259.765869 761.320801,1238.356689 786.664368,1234.864136 
	C803.777954,1232.505737 819.572205,1235.060913 834.072937,1244.503540 
	C848.016541,1253.583008 855.762573,1266.936279 858.867432,1282.897339 
	C861.634094,1297.119873 861.074036,1311.278198 856.081421,1325.165039 
	C850.136292,1341.701660 839.178833,1353.693115 822.929382,1359.726440 
	C802.594055,1367.276978 782.359497,1366.221924 763.388123,1354.719849 
	C748.792542,1345.870850 741.011597,1332.104980 737.140381,1316.052368 
	C734.775574,1306.246338 735.321960,1296.136841 736.571045,1285.726318 
z"/>
<path fill="#4C6971" opacity="1.000000" stroke="none" 
	d="
M1149.331299,1271.351807 
	C1155.870483,1254.128296 1168.016724,1242.876099 1184.787720,1237.370483 
	C1202.505005,1231.554199 1220.369141,1232.220703 1237.201538,1241.125366 
	C1254.031738,1250.029053 1264.347046,1264.291870 1267.639404,1282.829712 
	C1271.161255,1302.661133 1269.930908,1322.051270 1257.476807,1339.264893 
	C1246.080444,1355.016602 1230.667114,1362.998901 1211.359985,1364.035278 
	C1197.280029,1364.790894 1184.019409,1362.510132 1172.053955,1354.622803 
	C1155.497559,1343.709351 1147.303101,1328.078979 1144.829468,1308.611938 
	C1143.198486,1295.776367 1144.896240,1283.666748 1149.331299,1271.351807 
z"/>
</svg>